<?xml version="1.0" encoding="UTF-8"?>
<svg width="12px" height="23px" viewBox="0 0 12 23" version="1.1" xmlns="http://www.w3.org/2000/svg" xmlns:xlink="http://www.w3.org/1999/xlink">
    <!-- Generator: Sketch 62 (91390) - https://sketch.com -->
    <title>social-media-facebook</title>
    <desc>Created with Sketch.</desc>
    <g id="Page-1" stroke="none" stroke-width="1" fill="none" fill-rule="evenodd">
        <g id="Email-(web)" transform="translate(-697.000000, -2128.000000)" fill="#102140">
            <g id="Group-20" transform="translate(0.000000, 2095.000000)">
                <g id="Social" transform="translate(697.000000, 33.000000)">
                    <path d="M12,7 L7.82523639,7 L7.82523639,5.1 C7.78767948,4.81374267 7.87658921,4.52523615 8.06786542,4.31268392 C8.25914163,4.1001317 8.53297112,3.98555084 8.81512879,4 C9.22399739,4 11.7378546,4.01 11.7378546,4.01 L11.7378546,0 L7.50342354,0 C3.66221063,0 2.93446365,2.974 2.93446365,4.855 L2.93446365,7 L0,7 L0,11 L2.93446365,11 L2.93446365,23 L7.82523639,23 L7.82523639,11 L11.5921096,11 L12,7 Z" id="social-media-facebook"></path>
                </g>
            </g>
        </g>
    </g>
</svg>