<?xml version="1.0" encoding="UTF-8"?>
<svg width="23px" height="23px" viewBox="0 0 23 23" version="1.1" xmlns="http://www.w3.org/2000/svg" xmlns:xlink="http://www.w3.org/1999/xlink">
    <!-- Generator: Sketch 62 (91390) - https://sketch.com -->
    <title>social-media-instagram</title>
    <desc>Created with Sketch.</desc>
    <g id="Page-1" stroke="none" stroke-width="1" fill="none" fill-rule="evenodd">
        <g id="Email-(web)" transform="translate(-817.000000, -2128.000000)" fill="#102140" fill-rule="nonzero">
            <g id="Group-20" transform="translate(0.000000, 2095.000000)">
                <g id="Social" transform="translate(697.000000, 33.000000)">
                    <path d="M136.999,23.001 L125.999,23.001 C122.686891,22.9971426 120.002857,20.3131094 119.999,17.001 L119.999,6.001 C120.002857,2.6888906 122.686891,0.00485738115 125.999,0.001 L136.999,0.001 C140.311109,0.00485738115 142.995143,2.6888906 142.999,6.001 L142.999,17.001 C142.995143,20.3131094 140.311109,22.9971426 136.999,23.001 L136.999,23.001 Z M131.499,5.501 C128.186891,5.50485738 125.502857,8.1888906 125.499,11.501 C125.502307,14.8133376 128.186662,17.4976926 131.499,17.501 C134.811338,17.4976926 137.495693,14.8133376 137.499,11.501 C137.495143,8.1888906 134.811109,5.50485738 131.499,5.501 L131.499,5.501 Z M138.499,3.001 C137.670573,3.001 136.999,3.67257288 136.999,4.501 C136.999,5.32942712 137.670573,6.001 138.499,6.001 C139.327427,6.001 139.999,5.32942712 139.999,4.501 C139.999,3.67257288 139.327427,3.001 138.499,3.001 Z" id="social-media-instagram"></path>
                </g>
            </g>
        </g>
    </g>
</svg>