<?xml version="1.0" encoding="UTF-8"?>
<svg width="28px" height="23px" viewBox="0 0 28 23" version="1.1" xmlns="http://www.w3.org/2000/svg" xmlns:xlink="http://www.w3.org/1999/xlink">
    <!-- Generator: Sketch 62 (91390) - https://sketch.com -->
    <title>social-media-twitter</title>
    <desc>Created with Sketch.</desc>
    <g id="Page-1" stroke="none" stroke-width="1" fill="none" fill-rule="evenodd">
        <g id="Email-(web)" transform="translate(-749.000000, -2128.000000)" fill="#102140">
            <g id="Group-20" transform="translate(0.000000, 2095.000000)">
                <g id="Social" transform="translate(697.000000, 33.000000)">
                    <path d="M80,3.86538575 L77.4545455,3.22207649 L78.7272727,0.648839457 L75.5912727,1.54947242 C73.9271876,-0.0199334238 71.4992899,-0.438676438 69.4145938,0.484171714 C67.3298977,1.40701987 65.9877065,3.49469664 66,5.79531353 L66,7.08193204 C61.4958182,8.02116356 57.5567273,5.53798982 53.9090909,1.29214872 C53.2727273,4.72313143 53.9090909,7.29636846 55.8181818,9.01185982 L52,8.36855056 C52.5090909,11.0305643 53.7334545,13.1290391 57.0909091,13.5150246 L53.9090909,14.8016431 C55.1818182,17.3748802 57.1749091,17.7737319 60.2727273,18.0181894 C57.8633523,19.7585151 54.9604005,20.6614801 52,20.5914265 C68.2336364,27.8852669 77.4545455,17.1638747 77.4545455,7.7252413 L77.4545455,6.01661191 L80,3.86538575 Z" id="social-media-twitter"></path>
                </g>
            </g>
        </g>
    </g>
</svg>